<svg id="Слой_1" data-name="Слой 1" xmlns="http://www.w3.org/2000/svg" viewBox="0 0 200 200"><defs><style>.cls-1{fill:#090;}.cls-2{fill:none;stroke:#fff;stroke-miterlimit:10;stroke-width:3px;}</style></defs><title>icon_money</title><path class="cls-1" d="M136.92,37a3.17,3.17,0,0,1,1.53,3.94l-3.23,8.53a3.16,3.16,0,0,1-4.41,1.69A51,51,0,0,0,118,46.6V31.26A56.13,56.13,0,0,1,136.92,37Z"/><path class="cls-1" d="M118,92.76c17.45,8.64,26.25,19.54,26.25,36.69,0,15-9.09,29.26-26.25,35.19V146.39a19.7,19.7,0,0,0,7.15-15.4A20.7,20.7,0,0,0,118,115.06Z"/><path class="cls-1" d="M118,164.64v15.11h-8V166.69A50.3,50.3,0,0,0,118,164.64Z"/><path class="cls-1" d="M118,146.39v18.25a50.3,50.3,0,0,1-8,2.05v-15.9A24.82,24.82,0,0,0,118,146.39Z"/><path class="cls-1" d="M118,115.06v31.33a24.82,24.82,0,0,1-8,4.4V109.41A41,41,0,0,1,118,115.06Z"/><path class="cls-1" d="M118,92.76v22.3a41,41,0,0,0-8-5.65V89.18l.23.1Q114.37,91,118,92.76Z"/><path class="cls-1" d="M118,46.6V92.76q-3.63-1.8-7.77-3.48l-.23-.1V45.51A54.08,54.08,0,0,1,118,46.6Z"/><path class="cls-1" d="M118,31.26V46.6a54.08,54.08,0,0,0-8-1.09V30.74l.71,0c.12,0,.24,0,.36,0Q114.75,30.83,118,31.26Z"/><path class="cls-1" d="M118,19.75V31.26q-3.25-.44-6.93-.57c-.12,0-.24,0-.36,0l-.71,0v-11Z"/><path class="cls-1" d="M110,150.79v15.9l-.22,0a3,3,0,0,1-.42,0l-9.36.44V152.48A33.22,33.22,0,0,0,110,150.79Z"/><path class="cls-1" d="M110,89.18v20.23a87.64,87.64,0,0,0-9.65-4.54l-.35-.14v-20C102.92,86.16,106.24,87.63,110,89.18Z"/><path class="cls-1" d="M110,30.74V45.51q-1.8-.12-3.72-.12a34.87,34.87,0,0,0-6.28.53V31.39Z"/><path class="cls-1" d="M100,167.21v12.54H92v-12.5c1.21.09,2.42.15,3.62.17h.25Z"/><path class="cls-1" d="M100,152.48v14.73l-4.13.2h-.25c-1.2,0-2.41-.08-3.62-.17V152a54.41,54.41,0,0,0,7,.46C99.36,152.5,99.68,152.5,100,152.48Z"/><path class="cls-1" d="M100,104.73v47.75c-.32,0-.64,0-1,0a54.41,54.41,0,0,1-7-.46V101.33C94.52,102.5,97.19,103.62,100,104.73Z"/><path class="cls-1" d="M100,84.71v20c-2.81-1.11-5.48-2.23-8-3.4V80.07A60.66,60.66,0,0,0,100,84.71Z"/><path class="cls-1" d="M100,45.92V84.71a60.66,60.66,0,0,1-8-4.64V48.74A24,24,0,0,1,100,45.92Z"/><path class="cls-1" d="M100,31.39V45.92a24,24,0,0,0-8,2.82v-16a47.42,47.42,0,0,1,5.1-1.12l.36,0Z"/><path class="cls-1" d="M100,19.75V31.39l-2.54.16-.36,0A47.42,47.42,0,0,0,92,32.71v-13Z"/><path class="cls-1" d="M92,152v15.21c-10.36-.75-20.62-3.82-27.62-8A3.17,3.17,0,0,1,63,155.42l3.12-8.71A3.16,3.16,0,0,1,70.65,145,59.24,59.24,0,0,0,92,152Z"/><path class="cls-1" d="M92,80.07v21.26c-17.42-8-27.86-17.84-27.86-34.43S74.86,37.39,92,32.71v16a17.72,17.72,0,0,0-9,15.52C83,71,85.81,75.7,92,80.07Z"/><path class="cls-2" d="M118,92.76c17.45,8.64,26.25,19.54,26.25,36.69,0,15-9.09,29.26-26.25,35.19a50.3,50.3,0,0,1-8,2.05l-.22,0a3,3,0,0,1-.42,0l-9.36.44"/><path class="cls-2" d="M92,48.74a17.72,17.72,0,0,0-9,15.52c0,6.71,2.8,11.44,9,15.81a60.66,60.66,0,0,0,8,4.64c2.92,1.45,6.24,2.92,10,4.47"/><path class="cls-2" d="M100,31.39l10-.65.71,0c.12,0,.24,0,.36,0q3.68.14,6.93.57A56.13,56.13,0,0,1,136.92,37a3.17,3.17,0,0,1,1.53,3.94l-3.23,8.53a3.16,3.16,0,0,1-4.41,1.69A51,51,0,0,0,118,46.6a54.08,54.08,0,0,0-8-1.09q-1.8-.12-3.72-.12a34.87,34.87,0,0,0-6.28.53"/><path class="cls-2" d="M110,109.41a87.64,87.64,0,0,0-9.65-4.54l-.35-.14c-2.81-1.11-5.48-2.23-8-3.4-17.42-8-27.86-17.84-27.86-34.43S74.86,37.39,92,32.71"/><path class="cls-2" d="M100,152.48a33.22,33.22,0,0,0,10-1.69,24.82,24.82,0,0,0,8-4.4,19.7,19.7,0,0,0,7.15-15.4A20.7,20.7,0,0,0,118,115.06"/><path class="cls-2" d="M92,167.25c-10.36-.75-20.62-3.82-27.62-8A3.17,3.17,0,0,1,63,155.42l3.12-8.71A3.16,3.16,0,0,1,70.65,145,59.24,59.24,0,0,0,92,152"/><polyline class="cls-2" points="100 104.73 100 152.48 100 167.21 100 179.75 92 179.75 92 167.25 92 152.04 92 101.33"/><polyline class="cls-2" points="92 80.07 92 48.74 92 32.71 92 19.75 100 19.75 100 31.39 100 45.92 100 84.71"/><polyline class="cls-2" points="118 46.6 118 92.76 118 115.06 118 146.39"/><polyline class="cls-2" points="110 30.74 110 19.75 118 19.75 118 31.26"/><polyline class="cls-2" points="110 150.79 110 109.41 110 89.18 110 45.51"/><polyline class="cls-2" points="118 164.64 118 179.75 110 179.75 110 166.69"/></svg>