<svg id="Слой_1" data-name="Слой 1" xmlns="http://www.w3.org/2000/svg" viewBox="0 0 200 200"><defs><style>.cls-1,.cls-2,.cls-4,.cls-5,.cls-6{stroke:#fff;stroke-miterlimit:10;}.cls-1{stroke-width:4.8px;}.cls-2{font-size:40.02px;font-family:GOSTTypeB, GOST type B;}.cls-2,.cls-3,.cls-5{fill:#fff;}.cls-4{fill:none;}.cls-4,.cls-6{stroke-width:4px;}.cls-5{stroke-width:2px;}</style></defs><title>Монтажная область 1</title><rect x="26.27" y="49.1" width="147.46" height="143.79" rx="4.52" ry="4.52"/><path d="M169.21,49.6a4,4,0,0,1,4,4V188.38a4,4,0,0,1-4,4H30.79a4,4,0,0,1-4-4V53.62a4,4,0,0,1,4-4H169.21m0-1H30.79a5,5,0,0,0-5,5V188.38a5,5,0,0,0,5,5H169.21a5,5,0,0,0,5-5V53.62a5,5,0,0,0-5-5Z"/><path class="cls-1" d="M192,10.68a1.84,1.84,0,0,0-1.84-1.84H9.84A1.84,1.84,0,0,0,8,10.68V47.32a1.84,1.84,0,0,0,1.84,1.84H190.16A1.84,1.84,0,0,0,192,47.32Z"/><text class="cls-2" transform="translate(46.85 42.69)">STORE</text><path d="M174,65.55a18.43,18.43,0,0,1-18.29-16.4h36.58A18.42,18.42,0,0,1,174,65.55Z"/><path class="cls-3" d="M189.9,51.15a16.39,16.39,0,0,1-31.8,0h31.8m4.49-4H153.61a20.39,20.39,0,1,0,40.78,0Z"/><path d="M137,65.4A18.43,18.43,0,0,1,118.71,49h36.58A18.42,18.42,0,0,1,137,65.4Z"/><path class="cls-3" d="M152.9,51a16.39,16.39,0,0,1-31.8,0h31.8m4.49-4H116.61a20.39,20.39,0,1,0,40.78,0Z"/><path d="M100,65.4A18.42,18.42,0,0,1,81.71,49h36.58A18.42,18.42,0,0,1,100,65.4Z"/><path class="cls-3" d="M115.9,51a16.39,16.39,0,0,1-31.8,0h31.8m4.49-4H79.61a20.39,20.39,0,1,0,40.78,0Z"/><path d="M63,65.4A18.42,18.42,0,0,1,44.71,49H81.29A18.42,18.42,0,0,1,63,65.4Z"/><path class="cls-3" d="M78.9,51a16.39,16.39,0,0,1-31.8,0H78.9m4.49-4H42.61a20.39,20.39,0,1,0,40.78,0Z"/><path d="M26,65.4A18.42,18.42,0,0,1,7.71,49H44.29A18.42,18.42,0,0,1,26,65.4Z"/><path class="cls-3" d="M41.9,51a16.39,16.39,0,0,1-31.8,0H41.9m4.49-4H5.61a20.39,20.39,0,1,0,40.78,0Z"/><path class="cls-4" d="M159.33,92.76v98.68H100.67V92.76a2.91,2.91,0,0,1,2.91-2.9h52.84A2.9,2.9,0,0,1,159.33,92.76Z"/><circle class="cls-5" cx="148.38" cy="147.41" r="2.75"/><rect class="cls-6" x="37.49" y="91.51" width="51.32" height="51.32" rx="3.15" ry="3.15"/><line class="cls-4" x1="37.49" y1="117.17" x2="88.81" y2="117.17"/><line class="cls-4" x1="63.15" y1="91.51" x2="63.15" y2="142.83"/></svg>