<svg id="Слой_1" data-name="Слой 1" xmlns="http://www.w3.org/2000/svg" viewBox="0 0 200 200"><defs><style>.cls-1{fill:none;stroke:#fff;stroke-miterlimit:10;stroke-width:4px;}.cls-2{fill:#ff0;fill-rule:evenodd;}</style></defs><title>icon_lighting</title><path class="cls-1" d="M104.27,84.62,114.64,9.45a.36.36,0,0,0-.68-.2L61.36,127.6a.35.35,0,0,0,.43.49L95.58,117.7a.36.36,0,0,1,.47.38l-7.76,72.35a.36.36,0,0,0,.7.17L133.61,77.74a.36.36,0,0,0-.43-.48L104.72,85A.36.36,0,0,1,104.27,84.62Z"/><path class="cls-2" d="M104.27,84.62,114.64,9.45a.36.36,0,0,0-.68-.2L61.36,127.6a.35.35,0,0,0,.43.49L95.58,117.7a.36.36,0,0,1,.47.38l-7.76,72.35a.36.36,0,0,0,.7.17L133.61,77.74a.36.36,0,0,0-.43-.48L104.72,85A.36.36,0,0,1,104.27,84.62Z"/></svg>