<svg id="Слой_1" data-name="Слой 1" xmlns="http://www.w3.org/2000/svg" viewBox="0 0 200 200"><defs><style>.cls-1{fill:#fff;stroke:#fff;}.cls-1,.cls-2{stroke-miterlimit:10;}.cls-2{stroke:#000;}</style></defs><title>icon_edit</title><path d="M45.25,177a4.11,4.11,0,0,1-2.94-1.22L27.22,160.58a4.13,4.13,0,0,1,0-5.84l86.17-85.31a4.12,4.12,0,0,1,5.84,0L134.35,84.7a4.14,4.14,0,0,1,0,5.84L48.15,175.85A4.08,4.08,0,0,1,45.25,177Z"/><path d="M116.32,68.73h0a3.62,3.62,0,0,1,2.58,1.08L134,85.05a3.65,3.65,0,0,1,0,5.14L47.8,175.49a3.63,3.63,0,0,1-5.13,0L27.58,160.23a3.64,3.64,0,0,1,0-5.14l86.17-85.31a3.63,3.63,0,0,1,2.55-1m0-1a4.64,4.64,0,0,0-3.26,1.34L26.9,154.38a4.63,4.63,0,0,0,0,6.55L42,176.17a4.64,4.64,0,0,0,6.55,0l86.16-85.3a4.63,4.63,0,0,0,0-6.55L119.61,69.11a4.6,4.6,0,0,0-3.29-1.38Z"/><path d="M143.53,98.41A37.61,37.61,0,0,1,116.6,87.17a38.05,38.05,0,0,1-2.13-51l19.16,19.36a3.65,3.65,0,0,0,.3.34l14.12,14.26a4.23,4.23,0,0,0,3,1.27,4.29,4.29,0,0,0,3-1.25L178.53,46a38.14,38.14,0,0,1-8.35,41.44A37.64,37.64,0,0,1,143.53,98.41Z"/><path d="M114.5,37l18.73,18.91a4.32,4.32,0,0,0,.34.39l14.12,14.26a4.78,4.78,0,0,0,6.77,0l23.89-23.66a37.66,37.66,0,0,1-8.52,40.2A37.39,37.39,0,0,1,114.5,37m-.06-1.49a38.39,38.39,0,1,0,64.27,9.67l-25,24.7a3.79,3.79,0,0,1-5.36,0L134.28,55.56c-.1-.11-.2-.22-.29-.34L114.44,35.47Z"/><path d="M116.94,33.53a37.91,37.91,0,0,1,41.45-7.87L134,49.84a4,4,0,0,0-.34.37Z"/><path d="M143.54,23.13h0a37.14,37.14,0,0,1,14,2.7L133.6,49.48,117.65,33.54a37.16,37.16,0,0,1,25.89-10.41m0-1a38.28,38.28,0,0,0-27,11.12l-.28.28L133.69,51a4.2,4.2,0,0,1,.62-.8l24.95-24.7a38.38,38.38,0,0,0-15.73-3.36Z"/><rect class="cls-1" x="117.82" y="69.19" width="23.03" height="10.75" rx="0.98" ry="0.98" transform="translate(91.33 -69.81) rotate(45.29)"/><rect class="cls-2" x="134.01" y="75.57" width="1.54" height="9.21" rx="0.34" ry="0.34" transform="translate(123.93 -76.27) rotate(55.29)"/><rect class="cls-2" x="130.39" y="71.91" width="1.54" height="9.21" rx="0.34" ry="0.34" transform="matrix(0.57, 0.82, -0.82, 0.57, 119.37, -74.87)"/><rect class="cls-2" x="126.77" y="68.26" width="1.54" height="9.21" rx="0.34" ry="0.34" transform="translate(114.81 -73.47) rotate(55.29)"/><rect class="cls-2" x="123.16" y="64.61" width="1.54" height="9.21" rx="0.34" ry="0.34" transform="translate(110.24 -72.07) rotate(55.29)"/></svg>