<svg id="Слой_1" data-name="Слой 1" xmlns="http://www.w3.org/2000/svg" viewBox="0 0 200 200"><defs><style>.cls-1{fill:none;stroke:#fff;stroke-miterlimit:10;stroke-width:2px;}</style></defs><title>icon_arrow</title><path d="M158.63,98.87a17.52,17.52,0,0,1,0,24.75l-46.26,46.25a17.18,17.18,0,0,0,2.59-3.3q.21-.33.39-.66l.06-.1c.12-.24.25-.48.36-.73a7.59,7.59,0,0,0,.35-.77c.1-.23.2-.47.28-.7a17,17,0,0,0,.74-2.59,4.86,4.86,0,0,0,.1-.55,16.48,16.48,0,0,0,.26-3V115.25l16.38-16.38A17.51,17.51,0,0,1,158.63,98.87Z"/><path d="M117.5,115.25V157.5a17.41,17.41,0,0,0-5.13-12.37L100,132.76Z"/><path d="M117.5,42.5v72.75L100,132.76,82.5,115.25V42.5a17.5,17.5,0,0,1,35,0Z"/><path d="M117.5,157.5a16.48,16.48,0,0,1-.26,3,4.86,4.86,0,0,1-.1.55,17,17,0,0,1-.74,2.59c-.09.24-.18.47-.28.7s-.22.52-.35.77l-.36.73-.06.1c-.13.22-.25.44-.39.66a17.53,17.53,0,0,1-5.89,5.89l-.66.39-.1.06-.73.36c-.25.13-.51.24-.77.35l-.7.28a17,17,0,0,1-2.59.74,4.86,4.86,0,0,1-.55.1,17.42,17.42,0,0,1-5.94,0,4.86,4.86,0,0,1-.55-.1,17,17,0,0,1-2.59-.74l-.7-.28c-.26-.11-.52-.22-.77-.35l-.73-.36-.1-.06-.66-.39A17.53,17.53,0,0,1,85,166.57c-.14-.22-.26-.44-.39-.66l-.06-.1-.36-.73c-.13-.25-.24-.51-.35-.77s-.19-.46-.28-.7a17,17,0,0,1-.74-2.59,4.86,4.86,0,0,1-.1-.55,16.48,16.48,0,0,1-.26-3,17.41,17.41,0,0,1,5.13-12.37L100,132.76l12.37,12.37A17.41,17.41,0,0,1,117.5,157.5Z"/><path d="M117.14,161a4.86,4.86,0,0,0,.1-.55A4.86,4.86,0,0,1,117.14,161Z"/><path d="M116.12,164.31c.1-.23.19-.46.28-.7C116.32,163.84,116.22,164.08,116.12,164.31Z"/><path d="M115.77,165.08c.13-.25.24-.51.35-.77A7.59,7.59,0,0,1,115.77,165.08Z"/><path d="M115.41,165.81l.36-.73C115.66,165.33,115.53,165.57,115.41,165.81Z"/><path d="M115,166.57c.14-.22.26-.44.39-.66Q115.17,166.24,115,166.57Z"/><path d="M108.41,172.85l.66-.39Z"/><path d="M107.58,173.27l.73-.36C108.07,173,107.83,173.16,107.58,173.27Z"/><path d="M106.81,173.62c.26-.11.52-.22.77-.35A7.59,7.59,0,0,1,106.81,173.62Z"/><path d="M106.11,173.9l.7-.28C106.58,173.72,106.34,173.82,106.11,173.9Z"/><path d="M103,174.74a4.86,4.86,0,0,0,.55-.1A4.86,4.86,0,0,1,103,174.74Z"/><path d="M82.5,115.25,100,132.76,87.63,145.13A17.41,17.41,0,0,0,82.5,157.5Z"/><path d="M96.48,174.64a4.86,4.86,0,0,0,.55.1A4.86,4.86,0,0,1,96.48,174.64Z"/><path d="M93.19,173.62l.7.28C93.66,173.82,93.42,173.72,93.19,173.62Z"/><path d="M92.42,173.27c.25.13.51.24.77.35A7.59,7.59,0,0,1,92.42,173.27Z"/><path d="M91.69,172.91l.73.36C92.17,173.16,91.93,173,91.69,172.91Z"/><path d="M90.93,172.46l.66.39Z"/><path d="M85,166.57a17.18,17.18,0,0,0,2.59,3.3L41.37,123.62A17.5,17.5,0,0,1,66.12,98.87L82.5,115.25V157.5a16.48,16.48,0,0,0,.26,3,4.86,4.86,0,0,0,.1.55,17,17,0,0,0,.74,2.59c.08.23.18.47.28.7a7.59,7.59,0,0,0,.35.77c.11.25.24.49.36.73l.06.1Q84.83,166.24,85,166.57Z"/><path d="M84.65,165.91c.13.22.25.44.39.66Q84.83,166.24,84.65,165.91Z"/><path d="M84.23,165.08l.36.73C84.47,165.57,84.34,165.33,84.23,165.08Z"/><path d="M83.88,164.31c.11.26.22.52.35.77A7.59,7.59,0,0,1,83.88,164.31Z"/><path d="M83.6,163.61c.09.24.18.47.28.7C83.78,164.08,83.68,163.84,83.6,163.61Z"/><path d="M82.76,160.47a4.86,4.86,0,0,0,.1.55A4.86,4.86,0,0,1,82.76,160.47Z"/><path class="cls-1" d="M82.5,115.25V42.5a17.5,17.5,0,0,1,35,0v72.75"/><path class="cls-1" d="M87.63,169.87,41.37,123.62A17.5,17.5,0,0,1,66.12,98.87L82.5,115.25,100,132.76"/><path class="cls-1" d="M100,132.76l17.5-17.51,16.38-16.38a17.5,17.5,0,0,1,24.75,24.75l-46.26,46.25a17.18,17.18,0,0,1-3.3,2.59l-.66.39-.1.06c-.24.12-.48.25-.73.36a7.59,7.59,0,0,1-.77.35c-.23.1-.47.2-.7.28a17,17,0,0,1-2.59.74,4.86,4.86,0,0,1-.55.1,17.42,17.42,0,0,1-5.94,0,4.86,4.86,0,0,1-.55-.1,17,17,0,0,1-2.59-.74c-.23-.08-.47-.18-.7-.28a7.59,7.59,0,0,1-.77-.35c-.25-.11-.49-.24-.73-.36l-.1-.06-.66-.39a17.18,17.18,0,0,1-3.3-2.59"/></svg>