<svg id="Слой_1" data-name="Слой 1" xmlns="http://www.w3.org/2000/svg" viewBox="0 0 200 200"><defs><style>.cls-1{fill:#fff;}</style></defs><title>icon_settings</title><path d="M100,75a25,25,0,1,1-25,25,25,25,0,0,1,25-25m0-35a60,60,0,1,0,60,60,60,60,0,0,0-60-60Z"/><polygon class="cls-1" points="98.33 45.83 98.95 42.5 101.05 42.5 101.67 45.83 98.33 45.83"/><path d="M109.18,25H90.82a7.7,7.7,0,0,0-7.57,6.29L79,54.2a7.71,7.71,0,0,0,7.58,9.13h26.94a7.71,7.71,0,0,0,7.58-9.13l-4.3-22.91A7.7,7.7,0,0,0,109.18,25Z"/><polygon class="cls-1" points="98.95 157.5 98.33 154.17 101.67 154.17 101.05 157.5 98.95 157.5"/><path d="M113.47,136.67H86.53A7.71,7.71,0,0,0,79,145.8l4.3,22.91A7.7,7.7,0,0,0,90.82,175h18.36a7.7,7.7,0,0,0,7.57-6.29l4.3-22.91a7.71,7.71,0,0,0-7.58-9.13Z"/><polygon class="cls-1" points="154.17 98.33 157.5 98.95 157.5 101.05 154.17 101.67 154.17 98.33"/><path d="M144.36,78.82a7.7,7.7,0,0,0-7.69,7.71v26.94a7.7,7.7,0,0,0,7.69,7.71,8,8,0,0,0,1.44-.13l22.91-4.3a7.7,7.7,0,0,0,6.29-7.57V90.82a7.7,7.7,0,0,0-6.29-7.57L145.8,79a8,8,0,0,0-1.44-.13Z"/><polygon class="cls-1" points="42.5 101.05 42.5 98.95 45.83 98.33 45.83 101.67 42.5 101.05"/><path d="M55.64,78.82A8,8,0,0,0,54.2,79l-22.91,4.3A7.7,7.7,0,0,0,25,90.82v18.36a7.7,7.7,0,0,0,6.29,7.57l22.91,4.3a8,8,0,0,0,1.44.13,7.7,7.7,0,0,0,7.69-7.71V86.53a7.7,7.7,0,0,0-7.69-7.71Z"/><polygon class="cls-1" points="58.6 60.08 60.08 58.6 62.88 60.52 60.52 62.88 58.6 60.08"/><path d="M58.91,38.22a7.69,7.69,0,0,0-5.45,2.26l-13,13a7.7,7.7,0,0,0-.91,9.8L52.73,82.5a7.71,7.71,0,0,0,11.82,1.1l19-19a7.72,7.72,0,0,0-1.1-11.82L63.26,39.57a7.64,7.64,0,0,0-4.35-1.35Z"/><polygon class="cls-1" points="137.12 139.49 139.49 137.12 141.4 139.92 139.92 141.4 137.12 139.49"/><path d="M140.9,114.14a7.67,7.67,0,0,0-5.45,2.26l-19,19a7.72,7.72,0,0,0,1.1,11.82l19.24,13.16a7.69,7.69,0,0,0,9.8-.91l13-13a7.7,7.7,0,0,0,.91-9.8L147.27,117.5a7.71,7.71,0,0,0-6.37-3.36Z"/><polygon class="cls-1" points="137.12 60.52 139.92 58.6 141.4 60.08 139.49 62.88 137.12 60.52"/><path d="M141.09,38.22a7.64,7.64,0,0,0-4.35,1.35L117.5,52.73a7.72,7.72,0,0,0-1.1,11.82l19,19a7.71,7.71,0,0,0,11.82-1.1l13.16-19.24a7.7,7.7,0,0,0-.91-9.8l-13-13a7.69,7.69,0,0,0-5.45-2.26Z"/><polygon class="cls-1" points="58.6 139.92 60.51 137.12 62.88 139.49 60.08 141.4 58.6 139.92"/><path d="M59.1,114.14a7.71,7.71,0,0,0-6.37,3.36L39.57,136.74a7.7,7.7,0,0,0,.91,9.8l13,13a7.69,7.69,0,0,0,9.8.91L82.5,147.27a7.72,7.72,0,0,0,1.1-11.82l-19-19a7.67,7.67,0,0,0-5.45-2.26Z"/></svg>