<svg id="Слой_1" data-name="Слой 1" xmlns="http://www.w3.org/2000/svg" viewBox="0 0 200 200"><defs><style>.cls-1{fill:#fff;}</style></defs><title>Монтажная область 1</title><rect x="1.5" y="89.23" width="197" height="98"/><path d="M198,89.73v97H2v-97H198m1-1H1v99H199v-99Z"/><polygon points="2.97 88.54 100 35.84 197.03 88.54 2.97 88.54"/><path d="M100,36.41,195.06,88H4.94L100,36.41m0-1.14L1,89H199L100,35.27Z"/><rect class="cls-1" x="17.34" y="91.21" width="165.32" height="96.02"/><path d="M182.16,91.71v95H17.84v-95H182.16m1-1H16.84v97H183.16v-97Z"/><rect x="60.9" y="146.01" width="39.24" height="39.24"/><path d="M99.64,146.51v38.24H61.4V146.51H99.64m1-1H60.4v40.24h40.24V145.51Z"/><rect class="cls-1" x="73.94" y="145.64" width="13.16" height="5.11"/><path class="cls-1" d="M87,145.76v4.87H74.06v-4.87H87m.25-.25H73.81v5.37H87.23v-5.37Z"/><rect class="cls-1" x="73.94" y="145.64" width="13.16" height="15.84" rx="1.38" ry="1.38"/><path class="cls-1" d="M85.72,145.76A1.26,1.26,0,0,1,87,147V160.1a1.27,1.27,0,0,1-1.26,1.26H75.32a1.27,1.27,0,0,1-1.26-1.26V147a1.26,1.26,0,0,1,1.26-1.26h10.4m0-.25H75.32A1.51,1.51,0,0,0,73.81,147V160.1a1.52,1.52,0,0,0,1.51,1.51h10.4a1.52,1.52,0,0,0,1.51-1.51V147a1.51,1.51,0,0,0-1.51-1.51Z"/><rect x="77" y="146.01" width="7.05" height="12.41" rx="1" ry="1"/><path d="M83,146.51a.5.5,0,0,1,.5.5v10.41a.5.5,0,0,1-.5.5H78a.5.5,0,0,1-.5-.5V147a.5.5,0,0,1,.5-.5h5m0-1H78a1.5,1.5,0,0,0-1.5,1.5v10.41a1.5,1.5,0,0,0,1.5,1.5h5a1.5,1.5,0,0,0,1.5-1.5V147a1.5,1.5,0,0,0-1.5-1.5Z"/><rect x="76.62" y="145.64" width="7.8" height="5.11"/><path d="M84.29,145.76v4.87H76.75v-4.87h7.54m.25-.25h-8v5.37h8v-5.37Z"/><rect x="103.82" y="146.01" width="39.24" height="39.24"/><path d="M142.56,146.51v38.24H104.32V146.51h38.24m1-1H103.32v40.24h40.24V145.51Z"/><rect class="cls-1" x="116.86" y="145.64" width="13.16" height="5.11"/><path class="cls-1" d="M129.9,145.76v4.87H117v-4.87H129.9m.25-.25H116.73v5.37h13.42v-5.37Z"/><rect class="cls-1" x="116.86" y="145.64" width="13.16" height="15.84" rx="1.38" ry="1.38"/><path class="cls-1" d="M128.64,145.76A1.26,1.26,0,0,1,129.9,147V160.1a1.27,1.27,0,0,1-1.26,1.26h-10.4A1.27,1.27,0,0,1,117,160.1V147a1.26,1.26,0,0,1,1.26-1.26h10.4m0-.25h-10.4a1.51,1.51,0,0,0-1.51,1.51V160.1a1.52,1.52,0,0,0,1.51,1.51h10.4a1.52,1.52,0,0,0,1.51-1.51V147a1.51,1.51,0,0,0-1.51-1.51Z"/><rect x="119.92" y="146.01" width="7.05" height="12.41" rx="1" ry="1"/><path d="M126,146.51a.5.5,0,0,1,.5.5v10.41a.5.5,0,0,1-.5.5h-5a.5.5,0,0,1-.5-.5V147a.5.5,0,0,1,.5-.5h5m0-1h-5a1.5,1.5,0,0,0-1.5,1.5v10.41a1.5,1.5,0,0,0,1.5,1.5h5a1.5,1.5,0,0,0,1.5-1.5V147a1.5,1.5,0,0,0-1.5-1.5Z"/><rect x="119.54" y="145.64" width="7.8" height="5.11"/><path d="M127.21,145.76v4.87h-7.54v-4.87h7.54m.25-.25h-8v5.37h8v-5.37Z"/><rect x="82.36" y="103.09" width="39.24" height="39.24"/><path d="M121.1,103.59v38.24H82.86V103.59H121.1m1-1H81.86v40.24H122.1V102.59Z"/><rect class="cls-1" x="95.4" y="102.71" width="13.16" height="5.12"/><path class="cls-1" d="M108.44,102.84v4.87H95.52v-4.87h12.92m.25-.25H95.27V108h13.42v-5.37Z"/><rect class="cls-1" x="95.4" y="102.71" width="13.16" height="15.85" rx="1.38" ry="1.38"/><path class="cls-1" d="M107.18,102.84a1.26,1.26,0,0,1,1.26,1.25v13.09a1.27,1.27,0,0,1-1.26,1.26H96.78a1.27,1.27,0,0,1-1.26-1.26V104.09a1.26,1.26,0,0,1,1.26-1.25h10.4m0-.25H96.78a1.51,1.51,0,0,0-1.51,1.5v13.09a1.52,1.52,0,0,0,1.51,1.51h10.4a1.52,1.52,0,0,0,1.51-1.51V104.09a1.51,1.51,0,0,0-1.51-1.5Z"/><rect x="98.46" y="103.09" width="7.05" height="12.41" rx="1" ry="1"/><path d="M104.5,103.59a.5.5,0,0,1,.5.5V114.5a.5.5,0,0,1-.5.5h-5a.5.5,0,0,1-.5-.5V104.09a.5.5,0,0,1,.5-.5h5m0-1h-5a1.5,1.5,0,0,0-1.5,1.5V114.5a1.5,1.5,0,0,0,1.5,1.5h5a1.5,1.5,0,0,0,1.5-1.5V104.09a1.5,1.5,0,0,0-1.5-1.5Z"/><rect x="98.08" y="102.71" width="7.8" height="5.12"/><path d="M105.75,102.84v4.87H98.21v-4.87h7.54m.25-.25H98V108h8v-5.37Z"/></svg>